<svg xmlns="http://www.w3.org/2000/svg" xmlns:xlink="http://www.w3.org/1999/xlink" version="1.1" x="0px" y="0px" viewBox="0 0 100 125" enable-background="new 0 0 100 100" xml:space="preserve"><rect x="21.937" y="40.207" width="17.05" height="3.257"/><rect x="1.063" y="40.207" width="17.053" height="3.257"/><rect x="42.806" y="40.207" width="17.052" height="3.257"/><polygon points="76.5,44.795 92.472,51.461 93.429,48.329 77.46,41.663 "/><path d="M57.586,17.319H45.074c-1.259,0-2.268,1.298-2.268,2.886v17.58h17.052v-17.58C59.857,18.618,58.844,17.319,57.586,17.319z"/><path d="M97.271,28.055l-11.85-4.496c-1.186-0.451-2.491,0.283-2.899,1.645l-4.346,14.134l15.968,6.667l4.513-14.687  C99.072,29.965,98.45,28.5,97.271,28.055z"/><path d="M15.85,17.256H3.329c-1.25,0-2.265,1.428-2.265,3.202v17.327h17.053V20.458C18.117,18.684,17.104,17.256,15.85,17.256z"/><path d="M36.72,26.181H24.2c-1.255,0-2.263,1.133-2.263,2.537v9.067h17.05v-9.067C38.987,27.314,37.97,26.181,36.72,26.181z"/><path d="M42.806,88.031c0,1.588,1.009,2.88,2.268,2.88h12.512c1.258,0,2.271-1.292,2.271-2.88V45.883H42.806V88.031z"/><path d="M21.937,88.376c0,1.401,1.008,2.535,2.263,2.535H36.72c1.25,0,2.267-1.134,2.267-2.535V45.883h-17.05V88.376z"/><path d="M64.756,83.012c-0.421,1.361,0.21,2.818,1.39,3.271l11.846,4.499c1.184,0.445,2.486-0.289,2.902-1.646L91.757,53.78  L75.78,47.119L64.756,83.012z"/><path d="M1.063,87.705c0,1.769,1.016,3.206,2.265,3.206H15.85c1.254,0,2.267-1.438,2.267-3.206V45.883H1.063V87.705z"/><text x="0" y="115" fill="#000000" font-size="5px" font-weight="bold" font-family="'Helvetica Neue', Helvetica, Arial-Unicode, Arial, Sans-serif">Created by iconoci</text><text x="0" y="120" fill="#000000" font-size="5px" font-weight="bold" font-family="'Helvetica Neue', Helvetica, Arial-Unicode, Arial, Sans-serif">from the Noun Project</text></svg>